<?xml version="1.0" encoding="UTF-8"?>
<svg xmlns="http://www.w3.org/2000/svg" xmlns:xlink="http://www.w3.org/1999/xlink" width="64pt" height="64pt" viewBox="0 0 64 64" version="1.1">
<g id="surface564194">
<path style=" stroke:none;fill-rule:nonzero;fill:rgb(0%,0%,0%);fill-opacity:1;" d="M 10.292969 32 C 10.292969 20.011719 20.011719 10.292969 32 10.292969 C 43.988281 10.292969 53.707031 20.011719 53.707031 32 C 53.707031 43.988281 43.988281 53.707031 32 53.707031 C 20.011719 53.707031 10.292969 43.988281 10.292969 32 Z M 10.292969 32 "/>
<path style=" stroke:none;fill-rule:nonzero;fill:rgb(100%,100%,100%);fill-opacity:1;" d="M 43.855469 28.367188 L 35.585938 28.367188 L 35.585938 20.152344 C 35.585938 19.800781 35.308594 19.523438 34.957031 19.523438 L 29 19.523438 C 28.648438 19.523438 28.367188 19.800781 28.367188 20.152344 L 28.367188 28.367188 L 20.152344 28.367188 C 19.800781 28.367188 19.523438 28.648438 19.523438 29 L 19.523438 35.054688 C 19.523438 35.402344 19.800781 35.683594 20.152344 35.683594 L 28.367188 35.683594 L 28.367188 43.855469 C 28.367188 44.207031 28.648438 44.484375 29 44.484375 L 34.957031 44.484375 C 35.308594 44.484375 35.585938 44.207031 35.585938 43.855469 L 35.585938 35.683594 L 43.855469 35.683594 C 44.207031 35.683594 44.484375 35.402344 44.484375 35.054688 L 44.484375 29 C 44.484375 28.648438 44.199219 28.367188 43.855469 28.367188 Z M 43.855469 28.367188 "/>
</g>
</svg>
